<mxfile host="app.diagrams.net" modified="2024-06-22T10:40:44.148Z" agent="Mozilla/5.0 (Windows NT 10.0; Win64; x64) AppleWebKit/537.36 (KHTML, like Gecko) Chrome/126.0.0.0 Safari/537.36" etag="O8Yrb7Y37eb0lklMpM96" version="24.6.1" type="device">
  <diagram name="Page-1" id="yBp0QurF_RXcNHoxuHTx">
    <mxGraphModel dx="1794" dy="1658" grid="1" gridSize="10" guides="1" tooltips="1" connect="1" arrows="1" fold="1" page="1" pageScale="1" pageWidth="850" pageHeight="1100" math="0" shadow="0">
      <root>
        <mxCell id="0" />
        <mxCell id="1" parent="0" />
        <mxCell id="xnf2Qr-3N1n-Pf1lJ6ix-61" value="" style="whiteSpace=wrap;html=1;aspect=fixed;fillColor=#d5e8d4;gradientColor=#97d077;strokeColor=#82b366;rotation=0;" vertex="1" parent="1">
          <mxGeometry x="120" y="420" width="500" height="660" as="geometry" />
        </mxCell>
        <mxCell id="xnf2Qr-3N1n-Pf1lJ6ix-8" value="&lt;b&gt;&lt;font style=&quot;font-size: 24px;&quot;&gt;WhatsApp Pay Feature&lt;/font&gt;&lt;/b&gt;" style="html=1;strokeColor=none;fillColor=none;align=center;verticalAlign=middle;spacingLeft=4;spacingRight=4;rotatable=0;points=[[0,0.5],[1,0.5]];resizeWidth=1;whiteSpace=wrap;" vertex="1" parent="1">
          <mxGeometry x="150" y="431.74" width="430" height="48.26086956521739" as="geometry" />
        </mxCell>
        <mxCell id="xnf2Qr-3N1n-Pf1lJ6ix-16" value="&lt;span&gt;&lt;font style=&quot;font-size: 16px;&quot;&gt;WhatsApp User 2&lt;/font&gt;&lt;/span&gt;" style="shape=umlActor;verticalLabelPosition=bottom;verticalAlign=top;html=1;fontStyle=1;strokeWidth=2;" vertex="1" parent="1">
          <mxGeometry x="10" y="760" width="70" height="110" as="geometry" />
        </mxCell>
        <mxCell id="xnf2Qr-3N1n-Pf1lJ6ix-34" value="" style="edgeStyle=none;curved=1;rounded=0;orthogonalLoop=1;jettySize=auto;html=1;fontSize=12;startSize=8;endSize=8;strokeWidth=2;" edge="1" parent="1" target="xnf2Qr-3N1n-Pf1lJ6ix-18">
          <mxGeometry relative="1" as="geometry">
            <mxPoint x="80" y="590" as="sourcePoint" />
          </mxGeometry>
        </mxCell>
        <mxCell id="xnf2Qr-3N1n-Pf1lJ6ix-17" value="&lt;span&gt;&lt;font style=&quot;font-size: 16px;&quot;&gt;WhatsApp User 1&lt;/font&gt;&lt;/span&gt;" style="shape=umlActor;verticalLabelPosition=bottom;verticalAlign=top;html=1;fontStyle=1;strokeWidth=2;" vertex="1" parent="1">
          <mxGeometry x="10" y="530" width="70" height="110" as="geometry" />
        </mxCell>
        <mxCell id="xnf2Qr-3N1n-Pf1lJ6ix-18" value="&lt;font style=&quot;font-size: 14px;&quot;&gt;Messaging&lt;/font&gt;" style="ellipse;html=1;whiteSpace=wrap;strokeWidth=2;fillColor=#ffcd28;strokeColor=#d79b00;gradientColor=#ffa500;" vertex="1" parent="1">
          <mxGeometry x="200" y="560" width="110" height="55" as="geometry" />
        </mxCell>
        <mxCell id="xnf2Qr-3N1n-Pf1lJ6ix-19" value="&lt;font style=&quot;font-size: 14px;&quot;&gt;Send Messages&lt;/font&gt;" style="ellipse;html=1;whiteSpace=wrap;strokeWidth=2;fillColor=#dae8fc;strokeColor=#6c8ebf;gradientColor=#7ea6e0;" vertex="1" parent="1">
          <mxGeometry x="450" y="500" width="110" height="55" as="geometry" />
        </mxCell>
        <mxCell id="xnf2Qr-3N1n-Pf1lJ6ix-20" value="&lt;font style=&quot;font-size: 14px;&quot;&gt;Receive Messages&lt;/font&gt;" style="ellipse;html=1;whiteSpace=wrap;strokeWidth=2;fillColor=#dae8fc;strokeColor=#6c8ebf;gradientColor=#7ea6e0;" vertex="1" parent="1">
          <mxGeometry x="450" y="560" width="110" height="55" as="geometry" />
        </mxCell>
        <mxCell id="xnf2Qr-3N1n-Pf1lJ6ix-21" value="&lt;font style=&quot;font-size: 14px;&quot;&gt;Read Messages&lt;/font&gt;" style="ellipse;html=1;whiteSpace=wrap;strokeWidth=2;fillColor=#dae8fc;strokeColor=#6c8ebf;gradientColor=#7ea6e0;" vertex="1" parent="1">
          <mxGeometry x="450" y="620" width="110" height="55" as="geometry" />
        </mxCell>
        <mxCell id="xnf2Qr-3N1n-Pf1lJ6ix-22" value="&lt;span style=&quot;font-size: 14px;&quot;&gt;Reply Messages&lt;/span&gt;" style="ellipse;html=1;whiteSpace=wrap;strokeWidth=2;fillColor=#dae8fc;strokeColor=#6c8ebf;gradientColor=#7ea6e0;" vertex="1" parent="1">
          <mxGeometry x="450" y="680" width="110" height="55" as="geometry" />
        </mxCell>
        <mxCell id="xnf2Qr-3N1n-Pf1lJ6ix-26" value="" style="endArrow=none;startArrow=none;endFill=0;startFill=0;endSize=8;html=1;verticalAlign=bottom;labelBackgroundColor=none;strokeWidth=2;rounded=0;fontSize=12;curved=1;exitX=0.5;exitY=0;exitDx=0;exitDy=0;" edge="1" parent="1" source="xnf2Qr-3N1n-Pf1lJ6ix-18">
          <mxGeometry width="160" relative="1" as="geometry">
            <mxPoint x="199.9990598290596" y="424" as="sourcePoint" />
            <mxPoint x="255" y="530" as="targetPoint" />
          </mxGeometry>
        </mxCell>
        <mxCell id="xnf2Qr-3N1n-Pf1lJ6ix-27" value="&amp;nbsp; &amp;nbsp; &amp;nbsp; &amp;nbsp; &amp;nbsp; &amp;nbsp; &amp;nbsp; &amp;nbsp; &amp;nbsp; &amp;lt;&amp;lt;include&amp;gt;&amp;gt;" style="endArrow=open;html=1;rounded=0;align=center;verticalAlign=bottom;endFill=0;labelBackgroundColor=none;fontSize=12;startSize=8;endSize=8;curved=1;strokeWidth=2;" edge="1" parent="1">
          <mxGeometry relative="1" as="geometry">
            <mxPoint x="254" y="530" as="sourcePoint" />
            <mxPoint x="450" y="528.46" as="targetPoint" />
          </mxGeometry>
        </mxCell>
        <mxCell id="xnf2Qr-3N1n-Pf1lJ6ix-28" value="" style="resizable=0;html=1;align=center;verticalAlign=top;labelBackgroundColor=none;" connectable="0" vertex="1" parent="xnf2Qr-3N1n-Pf1lJ6ix-27">
          <mxGeometry relative="1" as="geometry" />
        </mxCell>
        <mxCell id="xnf2Qr-3N1n-Pf1lJ6ix-33" value="" style="endArrow=none;startArrow=none;endFill=0;startFill=0;endSize=8;html=1;verticalAlign=bottom;labelBackgroundColor=none;strokeWidth=2;rounded=0;fontSize=12;curved=1;" edge="1" parent="1">
          <mxGeometry width="160" relative="1" as="geometry">
            <mxPoint x="255" y="712" as="sourcePoint" />
            <mxPoint x="255.25" y="615" as="targetPoint" />
          </mxGeometry>
        </mxCell>
        <mxCell id="xnf2Qr-3N1n-Pf1lJ6ix-36" value="&amp;lt;&amp;lt;include&amp;gt;&amp;gt;" style="endArrow=open;html=1;rounded=0;align=center;verticalAlign=bottom;endFill=0;labelBackgroundColor=none;fontSize=12;startSize=8;endSize=8;curved=1;strokeWidth=2;" edge="1" parent="1">
          <mxGeometry relative="1" as="geometry">
            <mxPoint x="310" y="588" as="sourcePoint" />
            <mxPoint x="450" y="586.73" as="targetPoint" />
          </mxGeometry>
        </mxCell>
        <mxCell id="xnf2Qr-3N1n-Pf1lJ6ix-37" value="" style="resizable=0;html=1;align=center;verticalAlign=top;labelBackgroundColor=none;" connectable="0" vertex="1" parent="xnf2Qr-3N1n-Pf1lJ6ix-36">
          <mxGeometry relative="1" as="geometry" />
        </mxCell>
        <mxCell id="xnf2Qr-3N1n-Pf1lJ6ix-38" value="&amp;nbsp; &amp;nbsp; &amp;nbsp; &amp;nbsp; &amp;nbsp; &amp;nbsp; &amp;nbsp; &amp;nbsp; &amp;nbsp;&amp;lt;&amp;lt;include&amp;gt;&amp;gt;" style="endArrow=open;html=1;rounded=0;align=center;verticalAlign=bottom;endFill=0;labelBackgroundColor=none;fontSize=12;startSize=8;endSize=8;curved=1;strokeWidth=2;" edge="1" parent="1">
          <mxGeometry x="0.0036" relative="1" as="geometry">
            <mxPoint x="255" y="649" as="sourcePoint" />
            <mxPoint x="450" y="648" as="targetPoint" />
            <mxPoint as="offset" />
          </mxGeometry>
        </mxCell>
        <mxCell id="xnf2Qr-3N1n-Pf1lJ6ix-39" value="" style="resizable=0;html=1;align=center;verticalAlign=top;labelBackgroundColor=none;" connectable="0" vertex="1" parent="xnf2Qr-3N1n-Pf1lJ6ix-38">
          <mxGeometry relative="1" as="geometry" />
        </mxCell>
        <mxCell id="xnf2Qr-3N1n-Pf1lJ6ix-40" value="&amp;nbsp; &amp;nbsp; &amp;nbsp; &amp;nbsp; &amp;nbsp; &amp;nbsp; &amp;nbsp; &amp;nbsp; &amp;nbsp; &amp;lt;&amp;lt;include&amp;gt;&amp;gt;" style="endArrow=open;html=1;rounded=0;align=center;verticalAlign=bottom;endFill=0;labelBackgroundColor=none;fontSize=12;startSize=8;endSize=8;curved=1;strokeWidth=2;" edge="1" parent="1">
          <mxGeometry relative="1" as="geometry">
            <mxPoint x="254" y="711.54" as="sourcePoint" />
            <mxPoint x="450" y="710" as="targetPoint" />
          </mxGeometry>
        </mxCell>
        <mxCell id="xnf2Qr-3N1n-Pf1lJ6ix-41" value="" style="resizable=0;html=1;align=center;verticalAlign=top;labelBackgroundColor=none;" connectable="0" vertex="1" parent="xnf2Qr-3N1n-Pf1lJ6ix-40">
          <mxGeometry relative="1" as="geometry" />
        </mxCell>
        <mxCell id="xnf2Qr-3N1n-Pf1lJ6ix-45" value="" style="edgeStyle=none;curved=1;rounded=0;orthogonalLoop=1;jettySize=auto;html=1;fontSize=12;startSize=8;endSize=8;strokeWidth=2;" edge="1" parent="1" source="xnf2Qr-3N1n-Pf1lJ6ix-43" target="xnf2Qr-3N1n-Pf1lJ6ix-44">
          <mxGeometry relative="1" as="geometry" />
        </mxCell>
        <mxCell id="xnf2Qr-3N1n-Pf1lJ6ix-47" value="" style="edgeStyle=none;curved=1;rounded=0;orthogonalLoop=1;jettySize=auto;html=1;fontSize=12;startSize=8;endSize=8;strokeWidth=2;" edge="1" parent="1" source="xnf2Qr-3N1n-Pf1lJ6ix-43" target="xnf2Qr-3N1n-Pf1lJ6ix-46">
          <mxGeometry relative="1" as="geometry" />
        </mxCell>
        <mxCell id="xnf2Qr-3N1n-Pf1lJ6ix-43" value="&lt;font style=&quot;font-size: 14px;&quot;&gt;Call&lt;/font&gt;" style="ellipse;html=1;whiteSpace=wrap;strokeWidth=2;fillColor=#ffcd28;strokeColor=#d79b00;gradientColor=#ffa500;" vertex="1" parent="1">
          <mxGeometry x="200" y="793" width="110" height="55" as="geometry" />
        </mxCell>
        <mxCell id="xnf2Qr-3N1n-Pf1lJ6ix-42" value="" style="edgeStyle=none;curved=1;rounded=0;orthogonalLoop=1;jettySize=auto;html=1;fontSize=12;startSize=8;endSize=8;strokeWidth=2;" edge="1" parent="1">
          <mxGeometry relative="1" as="geometry">
            <mxPoint x="78" y="820" as="sourcePoint" />
            <mxPoint x="200" y="820" as="targetPoint" />
          </mxGeometry>
        </mxCell>
        <mxCell id="xnf2Qr-3N1n-Pf1lJ6ix-44" value="&lt;font style=&quot;font-size: 14px;&quot;&gt;Video Call&lt;/font&gt;" style="ellipse;html=1;whiteSpace=wrap;strokeWidth=2;fillColor=#fff2cc;strokeColor=#d6b656;gradientColor=#ffd966;" vertex="1" parent="1">
          <mxGeometry x="450" y="793" width="110" height="55" as="geometry" />
        </mxCell>
        <mxCell id="xnf2Qr-3N1n-Pf1lJ6ix-46" value="&lt;font style=&quot;font-size: 14px;&quot;&gt;Vocie Call&lt;/font&gt;" style="ellipse;html=1;whiteSpace=wrap;strokeWidth=2;fillColor=#ffcd28;strokeColor=#d79b00;gradientColor=#ffa500;" vertex="1" parent="1">
          <mxGeometry x="200" y="920" width="110" height="55" as="geometry" />
        </mxCell>
        <mxCell id="xnf2Qr-3N1n-Pf1lJ6ix-48" value="&lt;font style=&quot;font-size: 14px;&quot;&gt;Vocie Call&lt;/font&gt;" style="ellipse;html=1;whiteSpace=wrap;strokeWidth=2;fillColor=#ffcd28;strokeColor=#d79b00;gradientColor=#ffa500;" vertex="1" parent="1">
          <mxGeometry x="200" y="1010" width="110" height="55" as="geometry" />
        </mxCell>
        <mxCell id="xnf2Qr-3N1n-Pf1lJ6ix-49" value="" style="edgeStyle=none;curved=1;rounded=0;orthogonalLoop=1;jettySize=auto;html=1;fontSize=12;startSize=8;endSize=8;strokeWidth=2;" edge="1" parent="1">
          <mxGeometry relative="1" as="geometry">
            <mxPoint x="160" y="1037" as="sourcePoint" />
            <mxPoint x="200" y="1036.9099999999999" as="targetPoint" />
          </mxGeometry>
        </mxCell>
        <mxCell id="xnf2Qr-3N1n-Pf1lJ6ix-50" value="" style="endArrow=none;startArrow=none;endFill=0;startFill=0;endSize=8;html=1;verticalAlign=bottom;labelBackgroundColor=none;strokeWidth=2;rounded=0;fontSize=12;curved=1;" edge="1" parent="1">
          <mxGeometry width="160" relative="1" as="geometry">
            <mxPoint x="160" y="1038" as="sourcePoint" />
            <mxPoint x="160" y="820" as="targetPoint" />
          </mxGeometry>
        </mxCell>
        <mxCell id="xnf2Qr-3N1n-Pf1lJ6ix-51" value="&lt;span style=&quot;font-size: 12px;&quot;&gt;&amp;lt;&amp;lt;include&amp;gt;&amp;gt;&lt;/span&gt;" style="text;html=1;align=center;verticalAlign=middle;resizable=0;points=[];autosize=1;strokeColor=none;fillColor=none;fontSize=16;rotation=-90;" vertex="1" parent="1">
          <mxGeometry x="190" y="870" width="90" height="30" as="geometry" />
        </mxCell>
        <mxCell id="xnf2Qr-3N1n-Pf1lJ6ix-52" value="&lt;font style=&quot;font-size: 14px;&quot;&gt;Speaker&lt;/font&gt;" style="ellipse;html=1;whiteSpace=wrap;strokeWidth=2;fillColor=#f8cecc;strokeColor=#b85450;gradientColor=#ea6b66;" vertex="1" parent="1">
          <mxGeometry x="450" y="870" width="110" height="55" as="geometry" />
        </mxCell>
        <mxCell id="xnf2Qr-3N1n-Pf1lJ6ix-53" value="&lt;font style=&quot;font-size: 14px;&quot;&gt;Mute Call&lt;/font&gt;" style="ellipse;html=1;whiteSpace=wrap;strokeWidth=2;fillColor=#f8cecc;strokeColor=#b85450;gradientColor=#ea6b66;" vertex="1" parent="1">
          <mxGeometry x="450" y="940" width="110" height="55" as="geometry" />
        </mxCell>
        <mxCell id="xnf2Qr-3N1n-Pf1lJ6ix-54" value="&lt;font style=&quot;font-size: 14px;&quot;&gt;Delete Call&lt;/font&gt;" style="ellipse;html=1;whiteSpace=wrap;strokeWidth=2;fillColor=#f8cecc;strokeColor=#b85450;gradientColor=#ea6b66;" vertex="1" parent="1">
          <mxGeometry x="450" y="1010" width="110" height="55" as="geometry" />
        </mxCell>
        <mxCell id="xnf2Qr-3N1n-Pf1lJ6ix-55" value="" style="curved=1;endArrow=classic;html=1;rounded=0;fontSize=12;startSize=8;endSize=8;entryX=0.666;entryY=-0.016;entryDx=0;entryDy=0;entryPerimeter=0;exitX=0;exitY=0.5;exitDx=0;exitDy=0;" edge="1" parent="1" source="xnf2Qr-3N1n-Pf1lJ6ix-52" target="xnf2Qr-3N1n-Pf1lJ6ix-46">
          <mxGeometry width="50" height="50" relative="1" as="geometry">
            <mxPoint x="350" y="620" as="sourcePoint" />
            <mxPoint x="400" y="570" as="targetPoint" />
            <Array as="points">
              <mxPoint x="390" y="900" />
              <mxPoint x="273" y="890" />
            </Array>
          </mxGeometry>
        </mxCell>
        <mxCell id="xnf2Qr-3N1n-Pf1lJ6ix-56" value="" style="curved=1;endArrow=classic;html=1;rounded=0;fontSize=12;startSize=8;endSize=8;entryX=0.642;entryY=0.989;entryDx=0;entryDy=0;entryPerimeter=0;exitX=0;exitY=0;exitDx=0;exitDy=0;" edge="1" parent="1" source="xnf2Qr-3N1n-Pf1lJ6ix-54" target="xnf2Qr-3N1n-Pf1lJ6ix-46">
          <mxGeometry width="50" height="50" relative="1" as="geometry">
            <mxPoint x="450" y="989" as="sourcePoint" />
            <mxPoint x="273" y="1010" as="targetPoint" />
            <Array as="points">
              <mxPoint x="390" y="1020" />
              <mxPoint x="330" y="1020" />
              <mxPoint x="271" y="1000" />
            </Array>
          </mxGeometry>
        </mxCell>
        <mxCell id="xnf2Qr-3N1n-Pf1lJ6ix-57" value="" style="curved=1;endArrow=classic;html=1;rounded=0;fontSize=12;startSize=8;endSize=8;entryX=0.955;entryY=0.654;entryDx=0;entryDy=0;exitX=0;exitY=0.5;exitDx=0;exitDy=0;entryPerimeter=0;" edge="1" parent="1" source="xnf2Qr-3N1n-Pf1lJ6ix-53" target="xnf2Qr-3N1n-Pf1lJ6ix-46">
          <mxGeometry width="50" height="50" relative="1" as="geometry">
            <mxPoint x="540" y="984" as="sourcePoint" />
            <mxPoint x="345" y="940" as="targetPoint" />
            <Array as="points">
              <mxPoint x="390" y="970" />
              <mxPoint x="345" y="966" />
            </Array>
          </mxGeometry>
        </mxCell>
        <mxCell id="xnf2Qr-3N1n-Pf1lJ6ix-58" value="&lt;span style=&quot;font-size: 12px;&quot;&gt;&amp;lt;&amp;lt;exclude&amp;gt;&amp;gt;&lt;/span&gt;" style="text;html=1;align=center;verticalAlign=middle;resizable=0;points=[];autosize=1;strokeColor=none;fillColor=none;fontSize=16;rotation=0;" vertex="1" parent="1">
          <mxGeometry x="350" y="870" width="90" height="30" as="geometry" />
        </mxCell>
        <mxCell id="xnf2Qr-3N1n-Pf1lJ6ix-59" value="&lt;span style=&quot;font-size: 12px;&quot;&gt;&amp;lt;&amp;lt;exclude&amp;gt;&amp;gt;&lt;/span&gt;" style="text;html=1;align=center;verticalAlign=middle;resizable=0;points=[];autosize=1;strokeColor=none;fillColor=none;fontSize=16;rotation=0;" vertex="1" parent="1">
          <mxGeometry x="360" y="940" width="90" height="30" as="geometry" />
        </mxCell>
        <mxCell id="xnf2Qr-3N1n-Pf1lJ6ix-60" value="&lt;span style=&quot;font-size: 12px;&quot;&gt;&amp;lt;&amp;lt;exclude&amp;gt;&amp;gt;&lt;/span&gt;" style="text;html=1;align=center;verticalAlign=middle;resizable=0;points=[];autosize=1;strokeColor=none;fillColor=none;fontSize=16;rotation=0;" vertex="1" parent="1">
          <mxGeometry x="360" y="990" width="90" height="30" as="geometry" />
        </mxCell>
        <mxCell id="xnf2Qr-3N1n-Pf1lJ6ix-63" value="" style="edgeStyle=none;curved=1;rounded=0;orthogonalLoop=1;jettySize=auto;html=1;fontSize=12;startSize=8;endSize=8;" edge="1" parent="1" source="xnf2Qr-3N1n-Pf1lJ6ix-62" target="xnf2Qr-3N1n-Pf1lJ6ix-44">
          <mxGeometry relative="1" as="geometry" />
        </mxCell>
        <mxCell id="xnf2Qr-3N1n-Pf1lJ6ix-62" value="&lt;span&gt;&lt;font style=&quot;font-size: 16px;&quot;&gt;WhatsApp User 3&lt;/font&gt;&lt;/span&gt;&lt;div&gt;&lt;span&gt;&lt;font style=&quot;font-size: 16px;&quot;&gt;&lt;br&gt;&lt;/font&gt;&lt;/span&gt;&lt;/div&gt;" style="shape=umlActor;verticalLabelPosition=bottom;verticalAlign=top;html=1;fontStyle=1;strokeWidth=2;" vertex="1" parent="1">
          <mxGeometry x="680" y="760" width="70" height="110" as="geometry" />
        </mxCell>
      </root>
    </mxGraphModel>
  </diagram>
</mxfile>
